<svg width="34" height="11" viewBox="0 0 34 11" fill="none" xmlns="http://www.w3.org/2000/svg">
<path d="M0.989561 6.6021C1.67301 3.32689 4.52484 1 7.73047 1C10.9362 1 13.7879 3.32688 14.4714 6.6021C14.5279 6.8725 14.7927 7.0459 15.063 6.9895C15.3334 6.933 15.5068 6.6682 15.4504 6.3979C14.673 2.67312 11.4239 0 7.73047 0C4.03707 0 0.787891 2.67311 0.0106409 6.3979C-0.0457591 6.6682 0.127651 6.933 0.397971 6.9895C0.668291 7.0459 0.933151 6.8725 0.989561 6.6021Z" fill="#212121"/>
<path d="M7.72656 4C9.65953 4 11.2265 5.567 11.2265 7.5C11.2265 9.433 9.65953 11 7.72656 11C5.79356 11 4.22656 9.433 4.22656 7.5C4.22656 5.567 5.79356 4 7.72656 4Z" fill="#FB2C36"/>
<path d="M18.7239 6.6021C19.4074 3.32689 22.2592 1 25.4648 1C28.6705 1 31.5222 3.32688 32.2057 6.6021C32.2622 6.8725 32.527 7.0459 32.7973 6.9895C33.0677 6.933 33.2411 6.6682 33.1847 6.3979C32.4073 2.67312 29.1582 0 25.4648 0C21.7714 0 18.5223 2.67311 17.745 6.3979C17.6886 6.6682 17.862 6.933 18.1323 6.9895C18.4027 7.0459 18.6675 6.8725 18.7239 6.6021Z" fill="#212121"/>
<path d="M25.4609 4C27.3939 4 28.9609 5.567 28.9609 7.5C28.9609 9.433 27.3939 11 25.4609 11C23.5279 11 21.9609 9.433 21.9609 7.5C21.9609 5.567 23.5279 4 25.4609 4Z" fill="#2B7FFF"/>
</svg>
